<?xml version="1.0" encoding="UTF-8"?><svg xmlns="http://www.w3.org/2000/svg" viewBox="0 0 2551.36 2547.56"><g id="a"><rect x="28.76" y="46.14" width="2482.36" height="2482.36" rx="370.12" ry="370.12" style="stroke:#00ff04; stroke-miterlimit:10;"/></g><g id="b"><rect x="211.76" y="229.32" width="1029.21" height="1029.21" rx="319.77" ry="319.77" style="fill:#f60; stroke:#00ff04; stroke-miterlimit:10;"/></g><g id="c"><rect x="1299.91" y="203.71" width="1029.21" height="1029.21" rx="319.77" ry="319.77" style="fill:red; stroke:#00ff04; stroke-miterlimit:10;"/></g><g id="d"><rect x="1320.21" y="1326.32" width="1029.21" height="1029.21" rx="319.77" ry="319.77" style="fill:#0c0; stroke:#00ff04; stroke-miterlimit:10;"/></g><g id="e"><rect x="211.76" y="1326.32" width="1029.21" height="1029.21" rx="319.77" ry="319.77" style="fill:#30f; stroke:#00ff04; stroke-miterlimit:10;"/></g><g id="f"><rect x="255.13" y="271.01" width="2021.41" height="2021.41" rx="395.98" ry="395.98" transform="translate(1277.07 -519.67) rotate(45)" style="fill:#3d00d4; stroke:#00ff04; stroke-miterlimit:10;"/></g><g id="g"><g><path d="M132.69,1040.76h123.58c32.14,0,59.72,2.98,82.71,8.94,22.99,5.96,43.85,17.14,62.59,33.53,48.75,41.73,73.13,105.17,73.13,190.32,0,28.1-2.45,53.76-7.34,76.96-4.9,23.21-12.45,44.12-22.67,62.75-10.22,18.63-23.31,35.29-39.28,49.98-12.56,11.29-26.3,20.33-41.19,27.14-14.9,6.82-30.93,11.61-48.06,14.37-17.14,2.77-36.46,4.15-57.96,4.15h-123.58c-17.24,0-30.23-2.6-38.96-7.82-8.73-5.21-14.42-12.56-17.08-22.03-2.66-9.47-3.99-21.77-3.99-36.88v-343.29c0-20.44,4.58-35.23,13.73-44.39s23.95-13.73,44.39-13.73Zm36.72,75.04v317.74h71.85c15.75,0,28.1-.42,37.04-1.28,8.94-.85,18.2-2.98,27.78-6.39,9.58-3.4,17.88-8.19,24.91-14.37,31.72-26.82,47.58-73.02,47.58-138.59,0-46.19-6.98-80.79-20.92-103.78-13.95-22.99-31.14-37.63-51.57-43.91-20.44-6.28-45.14-9.42-74.09-9.42h-62.59Z" style="fill:#fff;"/><path d="M632.45,1527.75l7.98-19.48-107.3-270.16c-6.6-15.54-9.9-26.82-9.9-33.85,0-7.45,1.92-14.37,5.75-20.76s9.1-11.5,15.81-15.33,13.68-5.75,20.92-5.75c12.56,0,22.03,3.99,28.42,11.98s12.02,19.43,16.92,34.33l73.77,214.59,69.93-199.58c5.53-16.18,10.54-28.85,15.01-38,4.47-9.15,9.21-15.33,14.21-18.52,5-3.19,12.08-4.79,21.24-4.79,6.6,0,12.93,1.76,19,5.27s10.75,8.25,14.05,14.21c3.3,5.96,4.95,12.24,4.95,18.84-.85,4.05-2.24,9.79-4.15,17.24-1.92,7.45-4.26,15.01-7.03,22.67l-113.68,297.62c-9.79,26.19-19.37,46.73-28.74,61.63-9.37,14.9-21.77,26.34-37.2,34.33-15.44,7.98-36.24,11.97-62.43,11.97s-44.71-2.77-57.48-8.3c-12.77-5.54-19.16-15.65-19.16-30.34,0-10.01,3.03-17.72,9.1-23.15,6.07-5.43,15.06-8.14,26.98-8.14,4.68,0,9.26,.64,13.73,1.92,5.53,1.28,10.32,1.92,14.37,1.92,10,0,17.88-1.49,23.63-4.47,5.75-2.98,10.91-8.14,15.49-15.49,4.58-7.35,9.84-18.15,15.81-32.41Z" style="fill:#fff;"/><path d="M1007.99,1090.26v134.12h204.69v-134.12c0-19.16,4.31-33.53,12.93-43.11s19.96-14.37,34.01-14.37,25.81,4.74,34.65,14.21c8.83,9.48,13.25,23.9,13.25,43.27v368.83c0,19.38-4.47,33.85-13.41,43.43s-20.44,14.37-34.49,14.37-25.66-4.84-34.17-14.53c-8.52-9.68-12.77-24.11-12.77-43.27v-157.43h-204.69v157.43c0,19.38-4.47,33.85-13.41,43.43s-20.44,14.37-34.49,14.37-25.66-4.84-34.17-14.53c-8.52-9.68-12.77-24.11-12.77-43.27v-368.83c0-19.16,4.2-33.53,12.61-43.11,8.41-9.58,19.85-14.37,34.33-14.37s25.81,4.74,34.65,14.21c8.83,9.48,13.25,23.9,13.25,43.27Z" style="fill:#fff;"/><path d="M1623.66,1467.71c-21.08,16.4-41.46,28.69-61.15,36.88-19.69,8.19-41.78,12.29-66.26,12.29-22.35,0-41.99-4.42-58.92-13.25-16.92-8.83-29.97-20.81-39.12-35.92-9.16-15.11-13.73-31.5-13.73-49.18,0-23.84,7.55-44.17,22.67-60.99,15.11-16.82,35.87-28.1,62.27-33.85,5.53-1.28,19.26-4.15,41.19-8.62,21.92-4.47,40.72-8.57,56.36-12.29,15.65-3.72,32.62-8.25,50.93-13.57-1.07-22.99-5.7-39.86-13.89-50.61-8.2-10.75-25.18-16.13-50.93-16.13-22.14,0-38.8,3.09-49.98,9.26-11.18,6.18-20.76,15.44-28.74,27.78-7.98,12.35-13.63,20.49-16.92,24.43-3.3,3.94-10.38,5.91-21.24,5.91-9.79,0-18.26-3.14-25.39-9.42-7.14-6.28-10.7-14.32-10.7-24.11,0-15.33,5.43-30.23,16.29-44.71,10.86-14.48,27.78-26.4,50.77-35.77,22.99-9.37,51.62-14.05,85.9-14.05,38.32,0,68.44,4.53,90.37,13.57,21.92,9.05,37.41,23.37,46.46,42.95,9.05,19.59,13.57,45.56,13.57,77.92,0,20.44-.05,37.79-.16,52.05-.11,14.27-.27,30.13-.48,47.58,0,16.4,2.71,33.48,8.14,51.25,5.43,17.78,8.14,29.22,8.14,34.33,0,8.94-4.21,17.08-12.61,24.43-8.41,7.34-17.94,11.02-28.58,11.02-8.94,0-17.78-4.21-26.5-12.61-8.73-8.41-17.99-20.6-27.78-36.56Zm-5.75-126.14c-12.77,4.69-31.35,9.63-55.72,14.85-24.38,5.22-41.25,9.05-50.62,11.5-9.37,2.45-18.31,7.24-26.82,14.37-8.52,7.14-12.77,17.08-12.77,29.86s5,24.43,15.01,33.69c10,9.26,23.1,13.89,39.28,13.89,17.24,0,33.16-3.78,47.74-11.34,14.58-7.55,25.28-17.29,32.09-29.22,7.87-13.2,11.82-34.91,11.82-65.14v-12.45Z" style="fill:#fff;"/><path d="M2102.03,1119h-103.46v340.09c0,19.59-4.37,34.12-13.09,43.59-8.73,9.47-20.01,14.21-33.85,14.21s-25.5-4.79-34.33-14.37c-8.84-9.58-13.25-24.05-13.25-43.43v-340.09h-103.46c-16.18,0-28.21-3.56-36.08-10.7-7.88-7.13-11.82-16.55-11.82-28.26s4.1-21.71,12.29-28.74c8.19-7.03,20.06-10.54,35.61-10.54h301.45c16.39,0,28.58,3.62,36.56,10.86,7.98,7.24,11.97,16.72,11.97,28.42s-4.05,21.13-12.13,28.26c-8.09,7.14-20.23,10.7-36.4,10.7Z" style="fill:#fff;"/><path d="M2478.85,1090.26v245.25c0,21.29-.91,39.39-2.71,54.29-1.81,14.9-5.91,30.02-12.29,45.35-10.65,25.76-28.21,45.83-52.69,60.19-24.48,14.37-54.29,21.56-89.41,21.56-31.72,0-58.17-5-79.36-15.01-21.19-10-38.27-26.19-51.25-48.54-6.82-11.92-12.35-25.65-16.61-41.19-4.26-15.54-6.39-30.34-6.39-44.39,0-14.9,4.15-26.29,12.45-34.17,8.3-7.87,18.95-11.82,31.93-11.82s22.03,3.62,28.42,10.86c6.39,7.24,11.28,18.52,14.69,33.85,3.62,16.4,7.24,29.49,10.86,39.28,3.62,9.79,9.68,18.2,18.2,25.23,8.51,7.03,20.65,10.54,36.4,10.54,41.94,0,62.91-30.76,62.91-92.29v-258.98c0-19.16,4.2-33.53,12.61-43.11,8.41-9.58,19.85-14.37,34.33-14.37s26.35,4.79,34.97,14.37c8.62,9.58,12.93,23.95,12.93,43.11Z" style="fill:#fff;"/></g></g></svg>